PathFileType	4	(X/Y/Z)	C:/Files/Users/Natalie/Patient 3 c3d/Trial10.Isolated.Hip.Joint.Labeled.trc																																																																																																	
DataRate	CameraRate	NumFrames	NumMarkers	Units	OrigDataRate	OrigDataStartFrame	OrigNumFrames																																																																																													
100	100	7	33	m	100	266	1885																																																																																													
Frame#	Time	L_Asis			L_Elbow			L_Heel			L_Midfoot_Lateral			L_Midfoot_Superior			L_Patella			L_Shank_Inferior			L_Shank_Lateral			L_Shank_Superior			L_Shoulder			L_Thigh_Inferior			L_Thigh_Lateral			L_Thigh_Superior			L_Toe			L_Wrist			Neck			R_Asis			R_Elbow			R_Heel			R_Midfoot_Lateral			R_Midfoot_Superior			R_Patella			R_Shank_Inferior			R_Shank_Lateral			R_Shank_Superior			R_Shoulder			R_Thigh_Inferior			R_Thigh_Lateral			R_Thigh_Superior			R_Toe			R_Wrist			Sacral			Sternum		
		X1	Y1	Z1	X2	Y2	Z2	X3	Y3	Z3	X4	Y4	Z4	X5	Y5	Z5	X6	Y6	Z6	X7	Y7	Z7	X8	Y8	Z8	X9	Y9	Z9	X10	Y10	Z10	X11	Y11	Z11	X12	Y12	Z12	X13	Y13	Z13	X14	Y14	Z14	X15	Y15	Z15	X16	Y16	Z16	X17	Y17	Z17	X18	Y18	Z18	X19	Y19	Z19	X20	Y20	Z20	X21	Y21	Z21	X22	Y22	Z22	X23	Y23	Z23	X24	Y24	Z24	X25	Y25	Z25	X26	Y26	Z26	X27	Y27	Z27	X28	Y28	Z28	X29	Y29	Z29	X30	Y30	Z30	X31	Y31	Z31	X32	Y32	Z32	X33	Y33	Z33
																																																																																																				
266	2.65	0.49239862	0.92645984	0.29816299	0.29549747	1.20325208	0.06229469	0.27479184	0.03319048	0.40963834	0.35148676	0.02702168	0.3427692	0.44757367	0.08950311	0.37444095	0.47441818	0.49607294	0.35213919	0.41080441	0.23196152	0.35956433	0.34528326	0.32719415	0.28573288	0.43436948	0.38554309	0.33435312	0.49034274	1.4446571	0.21393962	0.48645694	0.60615454	0.32833582	0.40490591	0.65695001	0.26315637	0.50369348	0.72487915	0.3098508	0.56650177	0.04123726	0.36299963	0.47211789	1.25895227	-0.12649434	0.4689718	1.48165137	0.34927344	0.45502466	0.99882635	0.54692493	0.66203503	1.16063037	0.58103552	-0.34702856	0.60603735	0.52965576	-0.35620416	0.56487061	0.62546191	-0.27501093	0.48400275	0.643427	0.15236043	0.60203571	0.68155347	-0.15384631	0.56070599	0.64093262	-0.04898366	0.67702686	0.66932159	0.01684548	0.59248956	0.67491479	0.53657495	1.47081946	0.4842666	0.251086	0.6905097	0.65829077	0.21069472	0.80345331	0.65083417	0.32508801	0.77543408	0.63721735	-0.30655832	0.37171429	0.70935938	0.67280133	1.27723157	0.35773676	0.33086484	1.0493363	0.38313013	0.60701343	1.37299573	0.34663348
267	2.66	0.49330069	0.92714545	0.29756552	0.29516864	1.20343726	0.06193649	0.27480798	0.03320625	0.40962027	0.35147635	0.02699455	0.34274591	0.44758453	0.08948389	0.3743765	0.47517419	0.49581024	0.35117029	0.41103711	0.23187343	0.35937552	0.34587479	0.32700247	0.28536563	0.43485696	0.38533795	0.33386642	0.48922525	1.44513672	0.21408652	0.48759143	0.60598419	0.32718188	0.4066561	0.65714111	0.26271512	0.50535913	0.72493219	0.30970099	0.56651172	0.04120096	0.36296759	0.47176797	1.25882788	-0.12705369	0.46750613	1.48194482	0.34946796	0.45506589	0.99863983	0.54644824	0.66089636	1.16118616	0.58118201	-0.34059048	0.58862811	0.53037189	-0.34808896	0.54706281	0.6261925	-0.26464597	0.4682709	0.64348004	0.15929137	0.59679108	0.67968481	-0.14557307	0.54821246	0.64039545	-0.04360942	0.66731384	0.66856036	0.02457964	0.58444952	0.67386212	0.53467169	1.47106189	0.4845607	0.25619351	0.68673645	0.65624945	0.21405322	0.79919025	0.64994232	0.32863095	0.77303656	0.63536072	-0.29257211	0.35526337	0.7094024	0.67178772	1.27813672	0.35808365	0.33077521	1.04842114	0.38262787	0.60574847	1.37369641	0.34696765
268	2.67	0.49414694	0.92784412	0.29700052	0.29483731	1.20361987	0.06148341	0.27479889	0.03322897	0.40964688	0.35147571	0.02701283	0.34276514	0.44759341	0.08947128	0.37436823	0.47590689	0.4956243	0.3505051	0.41127921	0.23176361	0.35922302	0.34637018	0.32689185	0.28511023	0.43534094	0.38513681	0.33358624	0.48808487	1.44566199	0.21418404	0.48867847	0.60582758	0.32628088	0.40843402	0.65725592	0.26241534	0.50698956	0.72503656	0.30966568	0.56651331	0.04118713	0.36295932	0.47131113	1.25872705	-0.12769461	0.46594302	1.48222559	0.34971786	0.45502567	0.99852032	0.54591882	0.65969507	1.16177759	0.58134735	-0.33363757	0.57091345	0.53109729	-0.33941156	0.52905225	0.62683899	-0.25274884	0.45273663	0.64409912	0.16630481	0.59170691	0.67794232	-0.13679947	0.53571179	0.63998474	-0.03794353	0.6575769	0.66773724	0.03235143	0.57647992	0.67264246	0.53276447	1.47139832	0.48484424	0.26143631	0.68318164	0.65430048	0.21748701	0.79501959	0.64916138	0.33226813	0.7707373	0.63358942	-0.27781802	0.33879816	0.70962549	0.67071576	1.27903821	0.35841696	0.33057593	1.0477821	0.38190622	0.60447131	1.37440637	0.34728293
269	2.68	0.49493561	0.92846326	0.2964342	0.29444281	1.20383704	0.06103757	0.27481656	0.03321362	0.40966211	0.35147284	0.02700205	0.34280334	0.44762408	0.08946434	0.37436765	0.47654764	0.49539151	0.35007901	0.41150745	0.23166176	0.35906085	0.34660928	0.32673996	0.28514514	0.43582095	0.38492758	0.33328311	0.48688745	1.44620593	0.21427216	0.48982083	0.60566937	0.32561826	0.41017603	0.65723853	0.2621221	0.50852182	0.72520258	0.30948999	0.56653265	0.04115915	0.36295959	0.47079758	1.25868237	-0.12836067	0.46431641	1.4825127	0.34998114	0.45482852	0.99845306	0.54531732	0.65842004	1.16243066	0.58157501	-0.32611258	0.55287378	0.53178644	-0.33007477	0.510845	0.62754266	-0.24119023	0.4370014	0.64397888	0.1736931	0.58671417	0.67619159	-0.12755969	0.52319574	0.63945465	-0.03188798	0.64778772	0.66687585	0.0404906	0.56854718	0.67145795	0.53075232	1.47176965	0.48510324	0.26678107	0.67984015	0.65253284	0.2210482	0.79091516	0.64823724	0.3361011	0.76869672	0.63189508	-0.26221881	0.32251501	0.70975262	0.66959753	1.27990735	0.35885107	0.33041409	1.04693054	0.38123199	0.60311761	1.37516418	0.34763196
270	2.69	0.49571976	0.92910815	0.2958056	0.29405075	1.20393445	0.06072089	0.27484628	0.03323436	0.40970404	0.35148328	0.02704308	0.34280447	0.44764594	0.08946465	0.37435022	0.47718402	0.49522308	0.34965332	0.41174786	0.23157516	0.35890253	0.34681845	0.3266947	0.28511353	0.43623138	0.38475079	0.33299753	0.48569092	1.44677588	0.21431543	0.49071063	0.60556116	0.32533261	0.41165323	0.65723907	0.26173398	0.50987363	0.72533069	0.30922607	0.56650372	0.04111782	0.36294135	0.47027643	1.25868787	-0.12900574	0.46267334	1.48287061	0.350104	0.45474567	0.99852313	0.54479816	0.65694562	1.16306714	0.58189935	-0.31834961	0.5349494	0.53255804	-0.32011685	0.49250177	0.62827533	-0.22902911	0.42149066	0.64398187	0.18126846	0.58170001	0.67434955	-0.11783434	0.51080035	0.63889105	-0.02550376	0.63785583	0.66602332	0.04899666	0.56060864	0.67016656	0.5288092	1.47221973	0.48540222	0.27229257	0.67652069	0.65078558	0.22464116	0.78680261	0.64723578	0.33996805	0.76683978	0.63038367	-0.24569493	0.30635645	0.70980365	0.66842041	1.28083276	0.35925336	0.33011285	1.04611401	0.38053189	0.60172107	1.37594714	0.34796936
271	2.7	0.49641348	0.92971228	0.29527063	0.29356793	1.20408325	0.06038244	0.27485693	0.03323018	0.40971146	0.35148175	0.027048	0.34281186	0.44765515	0.08946307	0.37435535	0.47771741	0.49505823	0.34929175	0.41192847	0.23146754	0.35876312	0.34702789	0.32662991	0.28506238	0.43658676	0.38459174	0.33268387	0.48443671	1.44731299	0.21435582	0.49147675	0.6055188	0.32529871	0.41268262	0.65714191	0.26141177	0.51100745	0.7253609	0.30895169	0.56652612	0.041127	0.3629017	0.46974826	1.25875452	-0.12957935	0.46101346	1.48323279	0.35022623	0.45452478	0.99857892	0.54427863	0.65541949	1.16368225	0.58222949	-0.30990036	0.51697614	0.53387677	-0.30952347	0.47402411	0.629117	-0.21587372	0.406513	0.64438208	0.1891232	0.57679529	0.67239703	-0.10777464	0.49844714	0.63834454	-0.01881524	0.62786255	0.66523242	0.05790779	0.55274768	0.66879114	0.5266554	1.47255554	0.48566696	0.27804651	0.67336249	0.64909778	0.22835432	0.78276526	0.64622986	0.34388251	0.76511334	0.62890375	-0.2283139	0.29045834	0.70962384	0.66718134	1.2817168	0.3597265	0.32974115	1.04556238	0.37978207	0.60029626	1.37674182	0.34830588
272	2.71	0.49710428	0.93034436	0.29475482	0.29308759	1.20428223	0.06006849	0.27485886	0.03324495	0.40973389	0.3514986	0.02704969	0.34283527	0.44764874	0.08944242	0.37435858	0.47814862	0.49492371	0.34896494	0.41210815	0.23139413	0.35863803	0.34723111	0.32654605	0.28495187	0.43686276	0.38446552	0.33239767	0.48322162	1.44788135	0.21436888	0.49197134	0.60552332	0.32532669	0.4136283	0.65709314	0.26105518	0.51188333	0.72523853	0.30869812	0.566534	0.04112164	0.36289749	0.46925644	1.25883228	-0.1300585	0.45928885	1.48358618	0.35034564	0.45438879	0.99876538	0.54376715	0.65377643	1.16442273	0.58255676	-0.30116605	0.49911118	0.53511456	-0.29826398	0.45578067	0.63035339	-0.20262509	0.39133401	0.64394299	0.19710388	0.57194794	0.6702616	-0.09732972	0.48623215	0.63781934	-0.01176891	0.61803076	0.66447467	0.06685914	0.54484473	0.66717401	0.52461249	1.47305615	0.48590402	0.28387946	0.67033459	0.64730487	0.23209604	0.77871924	0.64519281	0.34783508	0.76344263	0.62747235	-0.21016376	0.27474603	0.70951056	0.66591626	1.28262573	0.36020932	0.32949362	1.04481384	0.37926245	0.59887433	1.37756396	0.34861774
